<?xml version="1.0" encoding="utf-8"?>
<!-- Generator: Adobe Illustrator 24.2.1, SVG Export Plug-In . SVG Version: 6.00 Build 0)  -->
<svg version="1.1" id="Layer_1" xmlns="http://www.w3.org/2000/svg" xmlns:xlink="http://www.w3.org/1999/xlink" x="0px" y="0px"
	 viewBox="0 0 512 512" style="enable-background:new 0 0 512 512;" xml:space="preserve">
<style type="text/css">
	.st0{fill:none;}
	.st1{fill:#5A6E79;}
	.st2{fill:#AA8E72;}
</style>
<g>
	<path class="st0" d="M223.9,359.1c-3.4,0-6,1.5-7.8,4.4c-1.6,2.6-2.4,6.1-2.4,10.6v15h10.2c3.4,0,6-1.5,7.8-4.4
		c1.6-2.6,2.4-6.1,2.4-10.6c0-4.4-0.8-7.9-2.4-10.6C229.8,360.6,227.2,359.1,223.9,359.1z"/>
	<path class="st0" d="M154.7,363.5c-1.6,2.6-2.4,6.1-2.4,10.5c0,4.4,0.8,7.9,2.4,10.6c1.9,2.9,4.4,4.4,7.7,4.4c3.4,0,6-1.5,7.8-4.4
		c1.6-2.6,2.4-6.1,2.4-10.6v-14.9h-10.2C159,359.1,156.4,360.6,154.7,363.5z"/>
	<path class="st1" d="M156.7,347.4c1.5,0,2.9-0.5,4.1-1.6c1.2-1.1,1.8-2.5,1.8-4.1c0-1.7-0.6-3-1.7-4.1c-1.1-1.1-2.5-1.7-4.1-1.7
		c-1.6,0-3,0.6-4.2,1.7c-1.2,1.1-1.8,2.4-1.8,4.1c0,1.7,0.6,3,1.7,4.1C153.6,346.9,155,347.4,156.7,347.4z"/>
	<path class="st1" d="M171.8,347.4c1.6,0,3-0.5,4.2-1.6c1.2-1.1,1.8-2.5,1.8-4.1c0-1.7-0.6-3-1.7-4.1c-1.1-1.1-2.5-1.7-4.1-1.7
		c-1.6,0-3,0.6-4.2,1.7c-1.2,1.1-1.8,2.4-1.8,4.1c0,1.7,0.6,3,1.7,4.1C168.8,346.9,170.1,347.4,171.8,347.4z"/>
	<path class="st2" d="M193.4,389L193.4,389l-0.4,0c-3.4,0-6-1.5-7.7-4.4c-1.6-2.6-2.4-6.1-2.4-10.6v-21.8h-20.5
		c-6.3,0-11.3,2.1-15,6.4c-3.6,4-5.4,9.2-5.4,15.4c0,6.2,1.8,11.3,5.4,15.4c3.8,4.2,8.8,6.3,15,6.3c6.5,0,11.6-2.2,15.4-6.6
		c3.6,4.2,8.4,6.4,14.4,6.6V389H193.4z M172.6,374c0,4.4-0.8,7.9-2.4,10.6c-1.8,2.9-4.4,4.4-7.8,4.4c-3.3,0-5.9-1.5-7.7-4.4
		c-1.6-2.7-2.4-6.2-2.4-10.6c0-4.4,0.8-7.9,2.4-10.5c1.7-2.9,4.3-4.4,7.7-4.4h10.2V374z"/>
	<path class="st2" d="M192.1,395.9h0.8C192.7,395.9,192.4,395.8,192.1,395.9L192.1,395.9z"/>
	<path class="st2" d="M256.3,395.9L256.3,395.9c-0.2,0-0.4,0-0.6,0H256.3z"/>
	<path class="st2" d="M239.3,389c3.3-4,5-9,5-15c0-6.2-1.8-11.4-5.4-15.4c-3.8-4.2-8.8-6.4-15-6.4c-6.3,0-11.4,2.1-15.1,6.4
		c-3.5,4-5.3,9.2-5.3,15.4v15h-10.1v6.9h61.8V389H239.3z M231.7,384.6c-1.8,2.9-4.4,4.4-7.8,4.4h-10.2v-15c0-4.4,0.8-7.9,2.4-10.6
		c1.8-2.9,4.4-4.4,7.8-4.4c3.3,0,5.9,1.5,7.7,4.4c1.6,2.7,2.4,6.2,2.4,10.6C234.1,378.5,233.3,382,231.7,384.6z"/>
	<path class="st1" d="M223.9,347.5c1.6,0,3-0.6,4.1-1.7c1.2-1.1,1.8-2.5,1.8-4.1s-0.6-3-1.7-4.1c-1.2-1.1-2.5-1.7-4.1-1.7
		c-1.6,0-3,0.6-4.2,1.7c-1.2,1.1-1.8,2.5-1.8,4.1c0,1.7,0.6,3.1,1.7,4.1C220.9,346.9,222.3,347.5,223.9,347.5z"/>
	<path class="st2" d="M192.1,389v6.8c0.3,0,0.5,0,0.8,0h0.4V389H192.1z"/>
	<path class="st1" d="M304.2,341.7c0,1.7,0.6,3,1.7,4.1c1.1,1.1,2.5,1.6,4.2,1.6c1.6,0,3-0.5,4.1-1.6c1.2-1.1,1.8-2.5,1.8-4.1
		c0-1.7-0.6-3-1.7-4.1c-1.1-1.1-2.5-1.7-4.1-1.7c-1.6,0-3,0.6-4.2,1.7C304.8,338.7,304.2,340,304.2,341.7z"/>
	<path class="st1" d="M302.5,334.6c1.6,0,3-0.6,4.1-1.7c1.2-1.1,1.7-2.5,1.7-4.1c0-1.6-0.6-3-1.7-4.1c-1.1-1.1-2.5-1.7-4.1-1.7
		c-1.6,0-3,0.6-4.2,1.7c-1.2,1.1-1.8,2.5-1.8,4.1c0,1.7,0.6,3.1,1.7,4.2C299.4,334.1,300.8,334.6,302.5,334.6z"/>
	<path class="st1" d="M294.9,347.4c1.5,0,2.9-0.5,4.1-1.6c1.2-1.1,1.8-2.5,1.8-4.1c0-1.7-0.6-3-1.7-4.1c-1.1-1.1-2.4-1.7-4-1.7
		c-1.7,0-3.1,0.6-4.3,1.7c-1.2,1.1-1.8,2.4-1.8,4.1c0,1.7,0.6,3,1.7,4.1C291.8,346.9,293.2,347.4,294.9,347.4z"/>
	<path class="st2" d="M337.1,367.5c0-5.7,0.7-10.4,2.2-14.1c-2-0.8-3.8-1.2-5.4-1.2c-2.6,0-4.4,0.5-5.5,1.6
		c-1.1,1.1-1.6,3.1-1.6,6.1V374c-0.1,10-3.4,14.9-10.2,14.9c-3.4,0-6-1.5-7.8-4.4c-1.6-2.6-2.4-6.1-2.4-10.6v-0.1
		c0-5.6,0.8-10.3,2.3-14.1c-2-0.8-3.8-1.2-5.4-1.2c-2.6,0-4.4,0.5-5.5,1.6c-1.1,1.1-1.6,3.1-1.6,6.1v7.7c-0.1,10-3.4,14.9-10.2,14.9
		c-3.4,0-6-1.5-7.8-4.4c-1.5-2.6-2.3-6.1-2.3-10.6v-0.1c0-5.6,0.7-10.3,2.1-14.1c-1.9-0.8-3.7-1.2-5.3-1.2c-2.6,0-4.5,0.5-5.5,1.6
		c-1,1.1-1.6,3.1-1.6,6.1v7.7c0,10-3.4,14.9-10.2,14.9h-0.3v0h1v6.8c6.1-0.2,11-2.4,14.6-6.6c3.8,4.4,8.8,6.6,15.2,6.6h0.1
		c6.4,0,11.5-2.2,15.3-6.6c3.8,4.4,8.8,6.6,15.2,6.6h0.1c6.3,0,11.3-2.1,15.1-6.3c3.5-4,5.3-9.2,5.3-15.4V367.5z"/>
	<path class="st2" d="M255.2,389v6.9h0.4c0.2,0,0.4,0,0.6,0V389H255.2z"/>
	<path class="st2" d="M357.2,353.8c-1.1,1.1-1.6,3.1-1.6,6.1v35.9c0,9.9-3.4,14.8-10.1,14.8h-0.4c-2.6,0-4.6-0.8-6.1-2.3
		c-1.7,1.8-2.6,3.3-2.6,4.7c0,0.4,0.1,0.9,0.3,1.3c1,2.2,3.3,3.2,7,3.2h1.8c6.3,0,11.3-2.2,15.1-6.5c3.4-3.9,5.2-9,5.2-15.3v-28.3
		c0-5.7,0.8-10.4,2.3-14.1c-2-0.8-3.8-1.2-5.4-1.2C360.1,352.3,358.3,352.8,357.2,353.8z"/>
	<path class="st2" d="M383.7,337.5c-1,1.1-1.6,3.1-1.6,6.1v37c0,5.6-0.7,10.3-2.2,14c2,0.8,3.7,1.3,5.3,1.3c2.6,0,4.5-0.5,5.5-1.6
		c1.1-1.1,1.6-3.1,1.6-6.1v-37c0-5.7,0.7-10.4,2.2-14.1c-1.9-0.8-3.7-1.2-5.4-1.2C386.6,335.9,384.8,336.4,383.7,337.5z"/>
	<path class="st1" d="M395.8,328.6c-0.2-0.4-0.5-0.8-0.9-1.3l-0.6-0.7l-0.7,0.7c-0.2,0.3-0.6,0.4-1.2,0.4H389
		c-1.4,0-2.1-1.2-2.1-3.7c0-2.4,0.7-3.5,2.1-3.5h0.2c0.7,0,1.1,0.1,1.4,0.3c0.6,0.3,0.9,0.9,1.1,1.6l0.2,0.9l0.8-0.2
		c0.8-0.2,1.4-0.5,1.7-0.8c0.3-0.4,0.5-0.9,0.5-1.6c0-1.4-0.7-2.4-2.1-3.1c-1.1-0.6-2.3-0.9-3.8-0.9c-2.1,0-3.9,0.8-5.2,2.3
		c-1.3,1.4-1.9,3.1-1.9,5.1c0,1.4,0.3,2.6,0.9,3.8c-0.7,0.1-1.4,0.4-2.1,0.7c-1.4,0.8-2.1,1.8-2.1,3.2c0,1.3,0.7,2,2.1,2.3l0.9,0.2
		l0.2-0.9c0.1-0.7,0.5-1.2,1-1.5c0.2-0.2,0.7-0.3,1.4-0.3h8.6c1.5,0,2.5-0.5,3-1.5c0.1-0.3,0.1-0.5,0.1-0.7
		C395.9,329.1,395.9,328.8,395.8,328.6z"/>
</g>
<path class="st1" d="M434.6,285.3h-35.8c-1.5,0-2.6-1.2-2.6-2.6c0-3.9,0-10.9,0-11.1V160.4c0,0,0-0.1,0-0.1
	c-0.1-17.5-21.4-26.1-33.6-13.5L349.8,160c-2.6-15.2-21.9-22-33.3-10.2l-9.6,9.8v-21.2c0-17.6-21.3-26.2-33.6-13.6L203,197.1v0
	l-8.9,9.2v0.1l-2,2v-0.1l-6.7,6.9l-5.9,6l0,0l-7.1,7.3v0l-7.2,7.4l-26.3,26.3l-23.1,23.1H87.7c-1.7,0-3.3,1.3-3.4,3
	c-0.1,1.9,1.4,3.4,3.2,3.4h51.4h44h9.4h20.5h61c1.5,0,2.6-1.2,2.6-2.6v-19.9v-29.7V191v-52.3c0-6.3,5.1-11.4,11.4-11.4h0
	c6.3,0,11.4,5.1,11.4,11.4v28.8V216v49.1v24c0,1.5,1.2,2.6,2.6,2.6h15c1.5,0,2.6-1.2,2.6-2.6v-3.8v-90.2v-31.1
	c0-6.3,4.9-11.7,11.2-11.8c6.4-0.1,11.6,5,11.6,11.4v8v113.7v3.2c0,1.5,1.2,2.6,2.6,2.6h18c1.5,0,2.6-1.2,2.6-2.6v-3.2V161.1
	c0-6.3,4.9-11.7,11.2-11.8c6.4-0.1,11.6,5,11.6,11.4v114.2v5.4c0,0,0,0,0,0c0,1.5,0,3.5,0,5h0v3.8l0,0c0,1.5,1.2,2.6,2.6,2.6h43.7
	c1.8,0,3.3-1.5,3.2-3.4C437.9,286.6,436.4,285.3,434.6,285.3z"/>
<polygon class="st2" points="206.4,64.9 191.1,61.5 171.7,64.5 171.7,64.5 161.5,73.4 166.1,103.7 169.1,127.3 169.7,144.3 
	169.7,215.8 169.8,215.7 169.7,223.5 185,207.9 186.2,206.7 188.1,204.8 206.8,185.8 206.8,144.7 208.3,127.5 210.7,103.7 
	215.5,73.1 "/>
</svg>
